# xmcd
#
# Track frame offsets:
#	150
#	11595
#	23337
#	33840
#	50792
#	60882
#	75127
#	94637
#	113005
#	131532
#
# Disc length: 2221 seconds
#
# Revision: 0
# Processed by: cddbd v1.4PL0 Copyright (c) Steve Scherf et al.
# Submitted via: EasyCDDAExtractor 5.0.4.1
#
DISCID=6108ab0a
DTITLE=Nat King/Natalie Cole - Back2Back Vocal Hits
DYEAR=1900
DGENRE=
TTITLE0=Orange Colored Sky
TTITLE1=Send For Me
TTITLE2=Sunday, Monday Or Always
TTITLE3=Embraceable You
TTITLE4=Blue Moon
TTITLE5=Stairway To The Stars
TTITLE6=Good Morning Hearthache
TTITLE7=Someone That I Used To Love
TTITLE8=Mona Lisa (Live)
TTITLE9=Que Sera, Sera
EXTD=
EXTT0=
EXTT1=
EXTT2=
EXTT3=
EXTT4=
EXTT5=
EXTT6=
EXTT7=
EXTT8=
EXTT9=
PLAYORDER=
